<?xml version="1.0" encoding="UTF-8" standalone="no"?>
<svg
   xmlns:dc="http://purl.org/dc/elements/1.1/"
   xmlns:cc="http://creativecommons.org/ns#"
   xmlns:rdf="http://www.w3.org/1999/02/22-rdf-syntax-ns#"
   xmlns:svg="http://www.w3.org/2000/svg"
   xmlns="http://www.w3.org/2000/svg"
   xmlns:sodipodi="http://sodipodi.sourceforge.net/DTD/sodipodi-0.dtd"
   xmlns:inkscape="http://www.inkscape.org/namespaces/inkscape"
   aria-hidden="true"
   focusable="false"
   data-prefix="far"
   data-icon="hand-pointer"
   class="svg-inline--fa fa-hand-pointer fa-w-14"
   role="img"
   viewBox="0 0 448 512"
   version="1.1"
   id="svg4"
   sodipodi:docname="hand-pointer-regular.svg"
   inkscape:version="0.92.4 (5da689c313, 2019-01-14)">
  <metadata
     id="metadata10">
    <rdf:RDF>
      <cc:Work
         rdf:about="">
        <dc:format>image/svg+xml</dc:format>
        <dc:type
           rdf:resource="http://purl.org/dc/dcmitype/StillImage" />
        <dc:title></dc:title>
      </cc:Work>
    </rdf:RDF>
  </metadata>
  <defs
     id="defs8" />
  <sodipodi:namedview
     pagecolor="#ffffff"
     bordercolor="#666666"
     borderopacity="1"
     objecttolerance="10"
     gridtolerance="10"
     guidetolerance="10"
     inkscape:pageopacity="0"
     inkscape:pageshadow="2"
     inkscape:window-width="1920"
     inkscape:window-height="1017"
     id="namedview6"
     showgrid="false"
     inkscape:pagecheckerboard="true"
     inkscape:zoom="0.65186406"
     inkscape:cx="279.27411"
     inkscape:cy="200.32116"
     inkscape:window-x="-8"
     inkscape:window-y="-8"
     inkscape:window-maximized="1"
     inkscape:current-layer="layer1" />
  <path
     d="M358.182 179.361c-19.493-24.768-52.679-31.945-79.872-19.098-15.127-15.687-36.182-22.487-56.595-19.629V67c0-36.944-29.736-67-66.286-67S89.143 30.056 89.143 67v161.129c-19.909-7.41-43.272-5.094-62.083 8.872-29.355 21.795-35.793 63.333-14.55 93.152l109.699 154.001C134.632 501.59 154.741 512 176 512h178.286c30.802 0 57.574-21.5 64.557-51.797l27.429-118.999A67.873 67.873 0 0 0 448 326v-84c0-46.844-46.625-79.273-89.818-62.639zM80.985 279.697l27.126 38.079c8.995 12.626 29.031 6.287 29.031-9.283V67c0-25.12 36.571-25.16 36.571 0v175c0 8.836 7.163 16 16 16h6.857c8.837 0 16-7.164 16-16v-35c0-25.12 36.571-25.16 36.571 0v35c0 8.836 7.163 16 16 16H272c8.837 0 16-7.164 16-16v-21c0-25.12 36.571-25.16 36.571 0v21c0 8.836 7.163 16 16 16h6.857c8.837 0 16-7.164 16-16 0-25.121 36.571-25.16 36.571 0v84c0 1.488-.169 2.977-.502 4.423l-27.43 119.001c-1.978 8.582-9.29 14.576-17.782 14.576H176c-5.769 0-11.263-2.878-14.697-7.697l-109.712-154c-14.406-20.223 14.994-42.818 29.394-22.606zM176.143 400v-96c0-8.837 6.268-16 14-16h6c7.732 0 14 7.163 14 16v96c0 8.837-6.268 16-14 16h-6c-7.733 0-14-7.163-14-16zm75.428 0v-96c0-8.837 6.268-16 14-16h6c7.732 0 14 7.163 14 16v96c0 8.837-6.268 16-14 16h-6c-7.732 0-14-7.163-14-16zM327 400v-96c0-8.837 6.268-16 14-16h6c7.732 0 14 7.163 14 16v96c0 8.837-6.268 16-14 16h-6c-7.732 0-14-7.163-14-16z"
     id="path2"
     fill="currentColor" />
  <g
     inkscape:groupmode="layer"
     id="layer1"
     inkscape:label="Background"
     style="display:inline">
    <path
       style="fill:#ffffff;fill-opacity:1;stroke:none;stroke-width:0.07181101;stroke-linecap:butt;stroke-linejoin:miter;stroke-miterlimit:4;stroke-dasharray:none;stroke-opacity:1;paint-order:markers fill stroke"
       d="m 171.65693,463.01939 c -3.91785,-1.20432 -6.84586,-3.18753 -9.40854,-6.37263 C 155.50642,448.26731 50.858145,300.45557 49.510193,297.4083 c -1.166235,-2.63647 -1.43579,-4.48901 -1.135323,-7.80262 0.456507,-5.03443 1.734403,-7.80157 5.249449,-11.36709 6.787509,-6.88496 15.695524,-7.93708 22.729176,-2.68451 1.368438,1.02192 9.254527,11.33172 17.524641,22.91066 8.270114,11.57895 16.049174,21.90467 17.286804,22.94607 2.35226,1.9793 6.60641,3.4779 9.8729,3.4779 5.79061,0 12.92529,-4.61299 15.07436,-9.74645 0.85165,-2.03433 1.03407,-23.94543 1.03773,-124.64255 0.003,-75.10262 0.29052,-123.921255 0.74695,-126.708445 0.89566,-5.469376 3.52663,-9.679112 7.82824,-12.525789 2.83375,-1.875285 3.90829,-2.115884 9.44973,-2.115884 5.6158,0 6.63333,0.235504 9.99351,2.312935 2.72369,1.683931 4.32394,3.428657 5.88434,6.415595 l 2.14325,4.102659 v 90.465939 c 0,62.6631 0.25655,91.4848 0.83478,93.78115 1.0751,4.26962 4.74051,8.688 8.69885,10.48585 4.39529,1.9963 16.42306,1.9963 20.81836,0 3.95834,-1.79785 7.62374,-6.21623 8.69885,-10.48585 0.49399,-1.96184 0.83478,-11.3598 0.83478,-23.02113 0,-21.40316 0.34694,-23.84693 4.01783,-28.30035 6.43897,-7.81159 19.13969,-8.49233 26.05429,-1.39647 5.31089,5.45011 5.48918,6.40314 5.94947,31.80155 l 0.41238,22.75566 2.3011,3.26451 c 3.66467,5.19899 7.61069,6.83724 16.42005,6.81708 8.22505,-0.0189 11.97667,-1.23955 15.5628,-5.06389 3.91706,-4.17726 4.45112,-6.72307 4.45112,-21.21799 0,-9.47423 0.32452,-14.39825 1.12638,-17.09108 4.7832,-16.06301 29.01451,-16.06301 33.79771,0 0.80186,2.69283 1.12637,7.61685 1.12637,17.09108 0,14.49492 0.53406,17.04073 4.45112,21.21799 3.58613,3.82434 7.33775,5.04506 15.56281,5.06389 6.24271,0.0143 7.87028,-0.25365 10.73844,-1.76786 5.27177,-2.78317 7.47026,-6.57472 8.74973,-15.08998 1.34941,-8.98064 3.48904,-12.46482 9.53842,-15.53238 9.47214,-4.8032 20.37149,-1.16282 24.6874,8.24558 1.31536,2.8674 1.40768,6.07895 1.41115,49.08999 l 0.004,46.02187 -14.12532,61.26578 c -15.6399,67.8349 -15.14188,66.25316 -22.24229,70.64328 l -3.75449,2.32138 -92.87115,0.132 c -51.07913,0.0726 -93.73629,-0.13394 -94.79369,-0.45899 z m 30.7159,-48.39464 c 3.72185,-1.89874 6.54525,-6.01187 7.63764,-11.12653 0.55213,-2.58506 0.75139,-20.39783 0.60491,-54.07569 -0.21796,-50.11481 -0.222,-50.22748 -1.91061,-53.3842 -1.94817,-3.64194 -5.56558,-6.93564 -8.53009,-7.76677 -2.64656,-0.74198 -11.42528,-0.74198 -14.07184,0 -2.96451,0.83113 -6.58192,4.12483 -8.5301,7.76677 -1.68861,3.15672 -1.69264,3.26939 -1.9106,53.3842 -0.14648,33.67786 0.0528,51.49063 0.6049,54.07569 1.07263,5.02212 3.88422,9.19357 7.47371,11.0885 4.12699,2.17867 14.395,2.19963 18.63208,0.038 z m 77.12521,-1.17627 c 1.59052,-1.28807 3.60648,-3.70422 4.47991,-5.36922 1.55397,-2.96227 1.59251,-4.13546 1.79561,-54.66122 0.13941,-34.68253 -0.0601,-52.62777 -0.60755,-54.66104 -0.92817,-3.44695 -4.54831,-7.92075 -7.74845,-9.57561 -3.17096,-1.63976 -10.44591,-2.19657 -14.47194,-1.10764 -4.94944,1.33868 -7.60069,3.52615 -9.6762,7.98353 l -1.82131,3.91148 -0.008,51.99099 c -0.008,56.78978 -0.13972,55.01673 4.44362,59.8972 3.37066,3.58916 5.89835,4.35168 13.69638,4.13169 6.5492,-0.18475 7.22163,-0.35698 9.91742,-2.54016 z m 72.64453,1.6892 c 3.25315,-1.35926 7.1599,-5.87697 8.21321,-9.49767 0.58316,-2.00455 0.76989,-18.85811 0.60988,-55.0472 -0.22628,-51.17978 -0.26066,-52.21567 -1.83298,-55.22624 -0.88131,-1.68747 -3.06831,-4.10362 -4.86002,-5.36922 -3.02461,-2.13649 -3.73302,-2.29916 -9.90309,-2.27405 -7.52785,0.0306 -9.99696,0.97731 -13.77654,5.28203 -1.30522,1.48655 -2.73519,4.00662 -3.17771,5.60016 -0.52449,1.88865 -0.80348,20.65503 -0.80138,53.9049 l 0.003,51.00756 1.80136,3.83516 c 3.16946,6.74784 6.74126,8.80937 15.27473,8.81613 3.28938,0.002 7.08257,-0.4605 8.44932,-1.03156 z"
       id="path818"
       inkscape:connector-curvature="0" />
  </g>
</svg>
